<mxfile host="65bd71144e">
    <diagram id="nXY32yyIMQ4RPxoas2hl" name="Page-1">
        <mxGraphModel dx="991" dy="767" grid="0" gridSize="10" guides="1" tooltips="1" connect="1" arrows="1" fold="1" page="0" pageScale="1" pageWidth="850" pageHeight="1100" background="none" math="0" shadow="1">
            <root>
                <mxCell id="0"/>
                <mxCell id="1" parent="0"/>
                <mxCell id="2" value="asdfasdf" style="whiteSpace=wrap;html=1;rounded=0;glass=0;shadow=0;strokeColor=default;fillStyle=auto;fillColor=default;strokeWidth=3;" vertex="1" parent="1">
                    <mxGeometry x="350" y="51" width="120" height="59" as="geometry"/>
                </mxCell>
                <mxCell id="14" value="asdfasdf" style="whiteSpace=wrap;html=1;rounded=0;glass=0;shadow=0;fillStyle=auto;strokeColor=default;strokeWidth=3;align=center;verticalAlign=middle;fontFamily=Helvetica;fontSize=12;fontColor=default;fillColor=default;" vertex="1" parent="1">
                    <mxGeometry x="298" y="282" width="120" height="59" as="geometry"/>
                </mxCell>
                <mxCell id="17" value="" style="endArrow=classic;startArrow=classic;html=1;strokeWidth=3;" edge="1" parent="1" source="2" target="14">
                    <mxGeometry width="50" height="50" relative="1" as="geometry">
                        <mxPoint x="347" y="366" as="sourcePoint"/>
                        <mxPoint x="397" y="316" as="targetPoint"/>
                    </mxGeometry>
                </mxCell>
                <mxCell id="18" value="" style="endArrow=classic;html=1;strokeWidth=3;" edge="1" parent="1" source="14" target="19">
                    <mxGeometry width="50" height="50" relative="1" as="geometry">
                        <mxPoint x="477" y="496" as="sourcePoint"/>
                        <mxPoint x="527" y="446" as="targetPoint"/>
                    </mxGeometry>
                </mxCell>
                <mxCell id="19" value="asdfasdf" style="whiteSpace=wrap;html=1;rounded=0;glass=0;shadow=0;fillStyle=auto;strokeColor=default;strokeWidth=3;align=center;verticalAlign=middle;fontFamily=Helvetica;fontSize=12;fontColor=default;fillColor=default;" vertex="1" parent="1">
                    <mxGeometry x="602" y="447" width="120" height="59" as="geometry"/>
                </mxCell>
            </root>
        </mxGraphModel>
    </diagram>
</mxfile>